<?xml version="1.0" encoding="UTF-8" standalone="no"?>
<!-- Created with Inkscape (http://www.inkscape.org/) -->

<svg
   width="210mm"
   height="297mm"
   viewBox="0 0 210 297"
   version="1.1"
   id="svg5"
   inkscape:version="1.2.2 (b0a8486541, 2022-12-01)"
   sodipodi:docname="cool-thing.svg"
   xmlns:inkscape="http://www.inkscape.org/namespaces/inkscape"
   xmlns:sodipodi="http://sodipodi.sourceforge.net/DTD/sodipodi-0.dtd"
   xmlns="http://www.w3.org/2000/svg"
   xmlns:svg="http://www.w3.org/2000/svg">
  <sodipodi:namedview
     id="namedview7"
     pagecolor="#ffffff"
     bordercolor="#000000"
     borderopacity="0.25"
     inkscape:showpageshadow="2"
     inkscape:pageopacity="0.0"
     inkscape:pagecheckerboard="0"
     inkscape:deskcolor="#d1d1d1"
     inkscape:document-units="mm"
     showgrid="false"
     inkscape:zoom="0.53094837"
     inkscape:cx="394.57697"
     inkscape:cy="561.25985"
     inkscape:window-width="679"
     inkscape:window-height="764"
     inkscape:window-x="683"
     inkscape:window-y="0"
     inkscape:window-maximized="1"
     inkscape:current-layer="layer1" />
  <defs
     id="defs2" />
  <g
     inkscape:label="Layer 1"
     inkscape:groupmode="layer"
     id="layer1">
    <path
       style="opacity:0.571314;fill:none;stroke:#000000;stroke-width:1"
       d="m 36.039512,105.00932 c -2.338557,-7.154051 -2.557669,-14.915976 0.507418,-21.926482 1.137621,-2.601987 5.593445,-5.133366 7.272935,-6.196605 8.284906,-5.244933 19.090246,-2.674842 26.554723,2.701089 1.315728,0.947589 2.283958,2.303153 3.382746,3.495516 2.171711,2.356657 4.336029,4.721593 6.427274,7.149939 5.640327,6.549519 11.747257,13.515093 13.192763,22.403123 0.809389,4.97673 2.002239,15.12541 0.169137,19.86094 -3.873172,10.00574 -11.618497,20.34382 -20.973145,25.73977 -3.096575,1.78616 -8.005127,2.25967 -11.163128,2.54221 -1.068244,0.0956 -2.186498,0.14986 -3.213605,-0.15889 -6.391375,-1.9213 -12.542395,-7.14178 -13.023654,-14.29988 -0.184362,-2.74214 0.785114,-5.45562 1.522248,-8.10325 0.886093,-3.18266 4.513464,-5.85567 7.442076,-6.99105 8.634987,-3.34767 15.333218,-4.18785 24.355919,-4.28997 6.449508,-0.073 21.978641,1.11659 27.400391,-1.42998 1.91835,-0.90105 3.68817,-2.10421 5.41244,-3.33664 1.93632,-1.384 5.09736,-5.37811 6.08896,-6.83216 6.36089,-9.32739 5.24864,-17.443348 1.35311,-27.964195 -3.10731,-8.392067 -6.26377,-14.212588 -15.89901,-15.888747 -5.528016,-0.96166 -8.013293,4.918673 -9.133464,9.215477 -2.970745,11.395323 6.465824,23.363575 11.501404,32.413035 3.72574,6.69555 5.19711,14.43102 4.73589,22.08535 -0.76606,12.71349 -6.63534,31.41647 -17.759543,38.92744 -1.957445,1.32165 -6.820077,1.33982 -8.118628,1.27109 -4.532379,-0.23987 -9.486821,-1.73421 -12.347099,-5.56106 -3.129573,-4.18715 -2.451354,-11.54983 2.537079,-14.14097 7.907719,-4.10751 14.70996,-4.25048 23.171952,-4.60775 1.7844,-0.0753 8.615449,-0.50475 11.163129,-0.31778 4.16157,0.11872 8.20868,1.28398 12.3471,1.58889 5.19433,0.38271 11.12471,-2.65045 15.5607,-4.60774 2.49075,-1.099 6.69403,-3.47338 8.11863,-5.56107 4.52146,-6.626 5.3071,-15.002 5.41244,-22.7209 0.10118,-7.41346 1.11827,-17.05689 -2.36794,-23.992009 -1.64681,-3.275991 -6.1737,-5.917818 -9.47174,-7.308826 -1.25522,-0.529412 -6.02335,-2.446488 -8.11863,-2.065525 -4.78174,0.869418 -8.53308,14.38536 -8.28777,18.43094 0.93824,15.473 8.01199,28.74395 14.04852,42.60896 5.59995,12.86223 10.6266,26.15551 13.03172,40.0592 0.004,0.0205 0.2006,6.04044 -0.50742,6.35549 -1.80284,0.80222 -3.95074,-0.12846 -5.91982,0 -3.57384,0.23314 -16.80655,3.33483 -19.4509,1.11222 -3.65527,-3.0723 -2.37415,-6.9337 -1.01483,-11.75768 1.73244,-6.14817 11.4673,-18.4256 18.6052,-19.54315 5.1867,-0.81206 11.19539,0.0685 16.23726,0.31777 0.95728,0.0473 1.93674,0.19398 2.87536,0 6.12756,-1.26637 6.73711,-2.05881 11.16312,-7.14994 12.74914,-14.665 6.67399,-42.88659 -0.16913,-58.788357 -0.69409,-1.612884 -3.80574,-6.906726 -6.25814,-5.719937 -5.70784,2.762197 -5.24414,4.84963 -6.93465,11.757664 -2.70004,11.0333 2.30306,23.02866 5.60377,33.29299 2.62008,8.14772 5.57927,16.19793 7.78036,24.46867 2.72201,10.22814 3.73718,21.88837 2.87536,32.41304 -0.60918,7.43927 -6.21105,21.05913 -14.88418,21.76758 -2.80054,0.22875 -5.98731,0.49205 -8.45691,-1.27109 -0.54829,-0.39144 -0.86154,-1.09176 -1.01483,-1.74777 -1.32396,-5.66582 -0.43475,-6.26929 3.55191,-11.59878 10.64339,-14.2284 29.23821,-5.616 43.46851,-10.96324"
       id="path122" />
  </g>
</svg>
